<?xml version="1.0" encoding="utf-8"?>
<!-- Generator: Adobe Illustrator 27.5.0, SVG Export Plug-In . SVG Version: 6.00 Build 0)  -->
<svg version="1.1" xmlns="http://www.w3.org/2000/svg" xmlns:xlink="http://www.w3.org/1999/xlink" x="0px" y="0px"
	 viewBox="0 0 500 500" style="enable-background:new 0 0 500 500;" xml:space="preserve">
<g id="BACKGROUND">
	<rect style="fill:#FFECDC;" width="500" height="500"/>
</g>
<g id="OBJECTS">
	<g>
		<g>
			<g>
				<circle style="fill:#FFFFFF;" cx="250" cy="250" r="161.475"/>
			</g>
			<g>
				<path style="opacity:0.7;fill:#FFECDC;" d="M250,88.525C160.82,88.525,88.525,160.82,88.525,250
					c0,89.18,72.295,161.475,161.475,161.475c89.18,0,161.475-72.295,161.475-161.475C411.475,160.82,339.18,88.525,250,88.525z
					 M250,371.711c-67.251,0-121.769-54.518-121.769-121.769c0-67.251,54.518-121.769,121.769-121.769
					s121.769,54.518,121.769,121.769C371.769,317.193,317.251,371.711,250,371.711z"/>
			</g>
		</g>
		<g>
			<g>
				<g>
					<path style="fill:#FFB800;" d="M250,70c-99.411,0-180,80.589-180,180s80.589,180,180,180s180-80.589,180-180S349.411,70,250,70
						z M250,384.111c-74.092,0-134.156-60.064-134.156-134.156S175.908,115.8,250,115.8c74.092,0,134.156,60.063,134.156,134.156
						S324.092,384.111,250,384.111z"/>
				</g>
				<g>
					<g>
						<path style="fill:none;stroke:#5E2E00;stroke-width:4;stroke-linecap:round;stroke-linejoin:round;stroke-miterlimit:10;" d="
							M250,70c-99.411,0-180,80.589-180,180s80.589,180,180,180s180-80.589,180-180S349.411,70,250,70z M250,384.111
							c-74.092,0-134.156-60.064-134.156-134.156S175.908,115.8,250,115.8c74.092,0,134.156,60.063,134.156,134.156
							S324.092,384.111,250,384.111z"/>
					</g>
				</g>
				<g>
					<path style="fill:none;stroke:#5E2E00;stroke-width:4;stroke-linecap:round;stroke-linejoin:round;stroke-miterlimit:10;" d="
						M124.75,159.278C106.258,184.763,95.345,216.105,95.345,250c0,20.712,4.082,40.468,11.468,58.521"/>
					<path style="fill:none;stroke:#5E2E00;stroke-width:4;stroke-linecap:round;stroke-linejoin:round;stroke-miterlimit:10;" d="
						M393.187,308.521c7.386-18.053,11.468-37.809,11.468-58.521c0-33.895-10.912-65.237-29.404-90.722"/>
				</g>
			</g>
			<g>
				<path id="SVGID_x5F_1_x5F_" style="fill:none;" d="M95.345,249.021c0-85.413,69.241-154.655,154.655-154.655
					c85.413,0,154.655,69.241,154.655,154.655"/>
				<text>				<textPath  xlink:href="#SVGID_x5F_1_x5F_" startOffset="0%">
<tspan  style="fill:#5E2E00; font-family:'Poppins-ExtraBold'; font-size:26px; letter-spacing:180;">TAKE A BREAK</tspan>				</textPath>
</text>
				<g>
					<path id="SVGID_x5F_00000011751503125187702910000016174542234587756947_x5F_" style="fill:none;" d="M95.345,249.979
						c0,85.413,69.241,154.654,154.655,154.654c85.413,0,154.655-69.241,154.655-154.654"/>
					<text>					<textPath  xlink:href="#SVGID_x5F_00000011751503125187702910000016174542234587756947_x5F_" startOffset="0%">
<tspan  style="fill:#5E2E00; font-family:'Poppins-ExtraBold'; font-size:26px; letter-spacing:180;">BUY A COFFEE HERE</tspan>					</textPath>
</text>
				</g>
			</g>
		</g>
		<g>
			<g>
				<path style="fill:#FFB800;" d="M238.781,334.142L238.781,334.142c39.675,0,71.839-32.163,71.839-71.838v-40.734H166.943v40.734
					C166.943,301.979,199.106,334.142,238.781,334.142z"/>
				<path style="fill:#5E2E00;" d="M238.781,321.812L238.781,321.812c30.984,0,56.101-25.117,56.101-56.101H182.68
					C182.68,296.694,207.798,321.812,238.781,321.812z"/>
				<path style="fill:#FFB800;" d="M319.5,229.01c10.637,0,19.291,8.654,19.291,19.291c0,10.637-8.654,19.291-19.291,19.291h-12.889
					V229.01H319.5 M319.732,221.569h-20.793v53.464h20.793c14.764,0,26.732-11.968,26.732-26.732
					C346.464,233.537,334.496,221.569,319.732,221.569L319.732,221.569z"/>
			</g>
			<g>
				<g>
					<path style="fill:#5E2E00;" d="M218.567,209.872c0-2.162,0.872-3.101,2.316-4.657c1.69-1.82,4.004-4.312,4.004-8.956
						c0-4.645-2.314-7.14-4.004-8.961c-1.444-1.556-2.316-2.495-2.316-4.66c0-2.165,0.872-3.104,2.316-4.661
						c1.69-1.822,4.003-4.315,4.003-8.961c0-1.746-1.415-3.16-3.16-3.16s-3.16,1.414-3.16,3.16c0,2.165-0.872,3.104-2.317,4.661
						c-1.689,1.822-4.004,4.315-4.004,8.961s2.314,7.139,4.004,8.96c1.445,1.556,2.317,2.495,2.317,4.661
						c0,2.162-0.872,3.1-2.316,4.656c-1.69,1.82-4.005,4.312-4.005,8.957c0,1.746,1.415,3.16,3.16,3.16
						S218.567,211.618,218.567,209.872z"/>
				</g>
				<g>
					<path style="fill:#5E2E00;" d="M238.781,209.872c0-2.162,0.872-3.101,2.316-4.657c1.69-1.82,4.004-4.312,4.004-8.956
						c0-4.645-2.314-7.14-4.004-8.961c-1.444-1.556-2.316-2.495-2.316-4.66c0-2.165,0.872-3.104,2.317-4.661
						c1.689-1.822,4.003-4.315,4.003-8.961c0-1.746-1.415-3.16-3.16-3.16c-1.745,0-3.16,1.414-3.16,3.16
						c0,2.165-0.872,3.104-2.316,4.661c-1.69,1.822-4.004,4.315-4.004,8.961s2.314,7.139,4.004,8.96
						c1.445,1.556,2.316,2.495,2.316,4.661c0,2.162-0.872,3.1-2.316,4.656c-1.69,1.82-4.005,4.312-4.005,8.957
						c0,1.746,1.415,3.16,3.16,3.16S238.781,211.618,238.781,209.872z"/>
				</g>
				<g>
					<path style="fill:#5E2E00;" d="M258.996,209.872c0-2.162,0.872-3.101,2.316-4.657c1.69-1.82,4.004-4.312,4.004-8.956
						c0-4.645-2.314-7.14-4.004-8.961c-1.444-1.556-2.316-2.495-2.316-4.66c0-2.165,0.872-3.104,2.316-4.661
						c1.69-1.822,4.004-4.315,4.004-8.961c0-1.746-1.415-3.16-3.16-3.16c-1.745,0-3.16,1.414-3.16,3.16
						c0,2.165-0.872,3.104-2.317,4.661c-1.689,1.822-4.003,4.315-4.003,8.961s2.314,7.139,4.003,8.96
						c1.445,1.556,2.317,2.495,2.317,4.661c0,2.162-0.872,3.1-2.315,4.656c-1.69,1.82-4.005,4.312-4.005,8.957
						c0,1.746,1.415,3.16,3.16,3.16C257.581,213.032,258.996,211.618,258.996,209.872z"/>
				</g>
			</g>
		</g>
	</g>
</g>
</svg>
